<svg width="140" height="232" viewBox="0 0 140 232" fill="none" xmlns="http://www.w3.org/2000/svg">
<g clip-path="url(#clip0_542_25008)">
<path d="M95.6822 137.6H44.2422V190.46H103.882C103.882 190.46 112.202 190.77 112.202 182.14" fill="white"/>
<path d="M95.6822 137.6H44.2422V190.46H103.882C103.882 190.46 112.202 190.77 112.202 182.14" stroke="#666666" stroke-width="2" stroke-linecap="round" stroke-linejoin="round"/>
<path d="M112.092 182.46C112.092 177.02 107.682 172.61 102.242 172.61H95.6719V121.47H102.242C107.682 121.47 112.092 125.88 112.092 131.32V182.46V182.46Z" fill="white" stroke="#666666" stroke-width="2" stroke-linecap="round" stroke-linejoin="round"/>
<path d="M55.2812 163.7L71.7513 147.22L88.4712 163.93" fill="white"/>
<path d="M55.2812 163.7L71.7513 147.22L88.4712 163.93" stroke="#666666" stroke-width="2" stroke-linecap="round" stroke-linejoin="round"/>
<path d="M59.293 159.68V174.95H68.133V162.89H75.383V174.95H84.223V159.68L71.753 147.22L59.293 159.68Z" fill="white" stroke="#666666" stroke-width="2" stroke-linecap="round" stroke-linejoin="round"/>
<path d="M53.989 177.47C52.929 177.15 47.979 175.34 43.699 173.75C43.019 173.5 42.319 173.37 41.599 173.37C40.879 173.37 40.169 173.5 39.499 173.75C35.219 175.34 30.269 177.15 29.209 177.47C28.319 177.74 27.749 178.57 27.809 179.5C27.829 179.79 27.849 180.06 27.869 180.23C28.849 189.63 33.379 197.21 40.959 202.16C40.959 202.16 41.019 202.21 41.069 202.23L41.589 202.53L42.109 202.23C42.109 202.23 42.189 202.18 42.219 202.16C49.809 197.21 54.339 189.62 55.319 180.22C55.339 180.05 55.359 179.78 55.379 179.49C55.449 178.56 54.869 177.73 53.979 177.46L53.989 177.47Z" fill="white" stroke="#666666" stroke-width="2" stroke-linecap="round" stroke-linejoin="round"/>
<path d="M47.7802 185.031H43.2502V180.521H39.8802V185.051H35.4102V188.391H39.9302V192.871H43.2702V188.341H47.7802V185.031Z" fill="#666666"/>
</g>
<path d="M9.75391 9.89258H12.8477C12.8047 7.14258 10.5381 5.23047 7.08984 5.23047C3.68457 5.23047 1.19238 7.11035 1.20312 9.93555C1.20312 12.2129 2.81445 13.5234 5.43555 14.168L7.13281 14.5762C8.83008 14.9951 9.79688 15.4893 9.79688 16.5527C9.79688 17.7129 8.70117 18.5078 7.00391 18.5078C5.28516 18.5078 4.03906 17.7129 3.93164 16.1445H0.794922C0.891602 19.4854 3.28711 21.2256 7.04688 21.2148C10.8389 21.2256 13.0518 19.3994 13.0625 16.5527C13.0518 13.9639 11.0645 12.6104 8.40039 11.998L7.00391 11.6543C5.66113 11.3535 4.50098 10.8486 4.51172 9.7207C4.52246 8.68945 5.43555 7.9375 7.06836 7.9375C8.64746 7.9375 9.625 8.65723 9.75391 9.89258ZM14.4564 8.10938H19.2259V21H22.4271V8.10938H27.1966V5.44531H14.4564V8.10938ZM29.0847 21H39.5476V18.3359H32.3073V14.5547H38.989V11.8906H32.3073V8.10938H39.5261V5.44531H29.0847V21ZM41.9298 21H45.1524V15.9297H47.9454C51.5333 15.9297 53.5958 13.792 53.5958 10.6875C53.5958 7.62598 51.5655 5.44531 48.0313 5.44531H41.9298V21ZM45.1524 13.3301V8.08789H47.4298C49.3419 8.09863 50.2764 9.14062 50.2657 10.6875C50.2764 12.2559 49.3419 13.3301 47.4298 13.3301H45.1524ZM66.4383 21.2148C70.327 21.2148 72.6902 18.3359 72.6902 13.2227C72.6902 8.1416 70.3162 5.23047 66.4383 5.23047C62.5604 5.23047 60.1863 8.1416 60.1863 13.2227C60.1863 18.3145 62.5389 21.2148 66.4383 21.2148ZM63.4949 13.2227C63.4949 9.66699 64.6443 7.88379 66.4383 7.87305C68.2322 7.88379 69.3924 9.66699 69.3816 13.2227C69.3924 16.8105 68.243 18.5508 66.4383 18.5508C64.6336 18.5508 63.4734 16.8105 63.4949 13.2227ZM74.9865 21H78.338L84.8908 8.13086V5.44531H73.9123V8.08789H81.5392V8.19531L74.9865 21Z" fill="#333333"/>
<defs>
<clipPath id="clip0_542_25008">
<rect width="86.4" height="83.06" fill="white" transform="translate(26.8008 120.47)"/>
</clipPath>
</defs>
</svg>
