<svg width="140" height="232" viewBox="0 0 140 232" fill="none" xmlns="http://www.w3.org/2000/svg">
<g clip-path="url(#clip0_542_25007)">
<path d="M71.7459 198.54C97.9859 198.54 109.466 184.83 109.466 184.83V174.09H32.5859V184.83C32.5859 184.83 44.0659 198.54 70.3059 198.54H71.7459Z" fill="white" stroke="#666666" stroke-width="2" stroke-linecap="round" stroke-linejoin="round"/>
<path d="M115.055 184.57C115.055 184.57 122.695 129.34 70.7254 129.34H71.3154C19.3554 129.34 24.7154 184.57 24.7154 184.57H115.055Z" fill="white" stroke="#666666" stroke-width="2" stroke-linecap="round" stroke-linejoin="round"/>
<path d="M70.3449 125.46C73.2949 125.46 74.0549 128.38 74.0249 132.06C73.9549 142.54 73.9349 156.27 70.3449 165.6C66.7549 156.28 66.7349 142.54 66.6649 132.06C66.6349 128.38 67.3949 125.46 70.3449 125.46V125.46Z" fill="white" stroke="#666666" stroke-width="2" stroke-linecap="round" stroke-linejoin="round"/>
</g>
<path d="M9.75391 9.89258H12.8477C12.8047 7.14258 10.5381 5.23047 7.08984 5.23047C3.68457 5.23047 1.19238 7.11035 1.20312 9.93555C1.20312 12.2129 2.81445 13.5234 5.43555 14.168L7.13281 14.5762C8.83008 14.9951 9.79688 15.4893 9.79688 16.5527C9.79688 17.7129 8.70117 18.5078 7.00391 18.5078C5.28516 18.5078 4.03906 17.7129 3.93164 16.1445H0.794922C0.891602 19.4854 3.28711 21.2256 7.04688 21.2148C10.8389 21.2256 13.0518 19.3994 13.0625 16.5527C13.0518 13.9639 11.0645 12.6104 8.40039 11.998L7.00391 11.6543C5.66113 11.3535 4.50098 10.8486 4.51172 9.7207C4.52246 8.68945 5.43555 7.9375 7.06836 7.9375C8.64746 7.9375 9.625 8.65723 9.75391 9.89258ZM14.4564 8.10938H19.2259V21H22.4271V8.10938H27.1966V5.44531H14.4564V8.10938ZM29.0847 21H39.5476V18.3359H32.3073V14.5547H38.989V11.8906H32.3073V8.10938H39.5261V5.44531H29.0847V21ZM41.9298 21H45.1524V15.9297H47.9454C51.5333 15.9297 53.5958 13.792 53.5958 10.6875C53.5958 7.62598 51.5655 5.44531 48.0313 5.44531H41.9298V21ZM45.1524 13.3301V8.08789H47.4298C49.3419 8.09863 50.2764 9.14062 50.2657 10.6875C50.2764 12.2559 49.3419 13.3301 47.4298 13.3301H45.1524ZM66.4383 21.2148C70.327 21.2148 72.6902 18.3359 72.6902 13.2227C72.6902 8.1416 70.3162 5.23047 66.4383 5.23047C62.5604 5.23047 60.1863 8.1416 60.1863 13.2227C60.1863 18.3145 62.5389 21.2148 66.4383 21.2148ZM63.4949 13.2227C63.4949 9.66699 64.6443 7.88379 66.4383 7.87305C68.2322 7.88379 69.3924 9.66699 69.3816 13.2227C69.3924 16.8105 68.243 18.5508 66.4383 18.5508C64.6336 18.5508 63.4734 16.8105 63.4949 13.2227ZM80.8302 21.2148C84.3429 21.2256 86.7277 18.959 86.7169 15.8008C86.7277 12.8682 84.6437 10.7734 81.84 10.7734C80.1212 10.7734 78.5851 11.5791 77.8654 12.9648H77.715C77.7365 9.90332 78.8429 8.00195 80.9591 8.00195C82.216 8.00195 83.1076 8.67871 83.3654 9.76367H86.5451C86.2336 7.20703 84.0851 5.23047 80.9591 5.23047C77.0705 5.23047 74.5675 8.33496 74.5568 13.5879C74.5461 19.2812 77.6183 21.2041 80.8302 21.2148ZM78.0373 15.8867C78.0587 14.3721 79.2619 13.126 80.8517 13.1152C82.4308 13.126 83.5802 14.3291 83.5802 15.8867C83.5802 17.4551 82.4093 18.6689 80.8087 18.6582C79.2189 18.6689 78.0587 17.4121 78.0373 15.8867Z" fill="#333333"/>
<defs>
<clipPath id="clip0_542_25007">
<rect width="92.89" height="75.08" fill="white" transform="translate(23.5547 124.46)"/>
</clipPath>
</defs>
</svg>
