<svg width="140" height="232" viewBox="0 0 140 232" fill="none" xmlns="http://www.w3.org/2000/svg">
<path d="M94.2098 124.489H33.5898V203.549H94.2098V124.489Z" fill="white" stroke="#666666" stroke-width="2" stroke-linecap="round" stroke-linejoin="round"/>
<path d="M81.4681 120.45H46.3281V128.52H81.4681V120.45Z" fill="white" stroke="#666666" stroke-width="2" stroke-linecap="round" stroke-linejoin="round"/>
<path d="M49.8322 185.47H41.7422V193.56H49.8322V185.47Z" fill="white" stroke="#666666" stroke-width="2" stroke-linecap="round" stroke-linejoin="round"/>
<path d="M56.6719 186.479H84.0819" stroke="#666666" stroke-width="2" stroke-linecap="round" stroke-linejoin="round"/>
<path d="M56.6719 191.819H75.1119" stroke="#666666" stroke-width="2" stroke-linecap="round" stroke-linejoin="round"/>
<path d="M94.1792 195.121C100.934 195.121 106.409 189.646 106.409 182.891C106.409 176.137 100.934 170.661 94.1792 170.661C87.4248 170.661 81.9492 176.137 81.9492 182.891C81.9492 189.646 87.4248 195.121 94.1792 195.121Z" fill="white" stroke="#666666" stroke-width="2" stroke-linecap="round" stroke-linejoin="round"/>
<path d="M63.9012 157.04L46.2812 167.2V146.87L63.9012 136.71V157.04Z" fill="white" stroke="#666666" stroke-width="2" stroke-linecap="round" stroke-linejoin="round"/>
<path d="M63.9023 157.04L81.5223 167.2V146.87L63.9023 136.71V157.04Z" fill="white" stroke="#666666" stroke-width="2" stroke-linecap="round" stroke-linejoin="round"/>
<path d="M81.5213 167.2L63.9012 177.29L46.2812 167.2L63.9012 157.04L81.5213 167.2Z" fill="white" stroke="#666666" stroke-width="2" stroke-linecap="round" stroke-linejoin="round"/>
<path d="M88.4297 178.671L91.3197 187.111L94.1997 178.671L97.0497 187.111L99.9297 178.671" fill="white"/>
<path d="M88.4297 178.671L91.3197 187.111L94.1997 178.671L97.0497 187.111L99.9297 178.671" stroke="#666666" stroke-width="2" stroke-linecap="round" stroke-linejoin="round"/>
<path d="M9.75391 9.89258H12.8477C12.8047 7.14258 10.5381 5.23047 7.08984 5.23047C3.68457 5.23047 1.19238 7.11035 1.20312 9.93555C1.20312 12.2129 2.81445 13.5234 5.43555 14.168L7.13281 14.5762C8.83008 14.9951 9.79688 15.4893 9.79688 16.5527C9.79688 17.7129 8.70117 18.5078 7.00391 18.5078C5.28516 18.5078 4.03906 17.7129 3.93164 16.1445H0.794922C0.891602 19.4854 3.28711 21.2256 7.04688 21.2148C10.8389 21.2256 13.0518 19.3994 13.0625 16.5527C13.0518 13.9639 11.0645 12.6104 8.40039 11.998L7.00391 11.6543C5.66113 11.3535 4.50098 10.8486 4.51172 9.7207C4.52246 8.68945 5.43555 7.9375 7.06836 7.9375C8.64746 7.9375 9.625 8.65723 9.75391 9.89258ZM14.4564 8.10938H19.2259V21H22.4271V8.10938H27.1966V5.44531H14.4564V8.10938ZM29.0847 21H39.5476V18.3359H32.3073V14.5547H38.989V11.8906H32.3073V8.10938H39.5261V5.44531H29.0847V21ZM41.9298 21H45.1524V15.9297H47.9454C51.5333 15.9297 53.5958 13.792 53.5958 10.6875C53.5958 7.62598 51.5655 5.44531 48.0313 5.44531H41.9298V21ZM45.1524 13.3301V8.08789H47.4298C49.3419 8.09863 50.2764 9.14062 50.2657 10.6875C50.2764 12.2559 49.3419 13.3301 47.4298 13.3301H45.1524ZM66.4383 21.2148C70.327 21.2148 72.6902 18.3359 72.6902 13.2227C72.6902 8.1416 70.3162 5.23047 66.4383 5.23047C62.5604 5.23047 60.1863 8.1416 60.1863 13.2227C60.1863 18.3145 62.5389 21.2148 66.4383 21.2148ZM63.4949 13.2227C63.4949 9.66699 64.6443 7.88379 66.4383 7.87305C68.2322 7.88379 69.3924 9.66699 69.3816 13.2227C69.3924 16.8105 68.243 18.5508 66.4383 18.5508C64.6336 18.5508 63.4734 16.8105 63.4949 13.2227ZM74.8146 21H85.9435V18.3359H79.3048V18.25L81.6681 15.9512C84.8693 13.0508 85.7287 11.6006 85.7287 9.82812C85.7287 7.13184 83.5158 5.23047 80.1857 5.23047C76.9093 5.23047 74.6535 7.1748 74.6642 10.2148H77.7365C77.7257 8.72168 78.6818 7.79785 80.1427 7.80859C81.5714 7.79785 82.6134 8.65723 82.6134 10.043C82.6134 11.2783 81.8293 12.1377 80.3791 13.5234L74.7931 18.6582L74.8146 21Z" fill="#333333"/>
</svg>
