<svg width="140" height="232" viewBox="0 0 140 232" fill="none" xmlns="http://www.w3.org/2000/svg">
<path d="M66.7714 160.635L23.8242 184.956V169.026L66.7714 144.812V160.635Z" fill="white" stroke="#666666" stroke-width="2" stroke-linecap="round" stroke-linejoin="round"/>
<path d="M66.7734 160.635L116.175 188.447V172.935L66.7734 144.812V160.635Z" fill="white" stroke="#666666" stroke-width="2" stroke-linecap="round" stroke-linejoin="round"/>
<path d="M116.173 188.447L73.4326 213.17L23.8242 184.957L66.7714 160.636L116.173 188.447Z" fill="white" stroke="#666666" stroke-width="2" stroke-linecap="round" stroke-linejoin="round"/>
<path d="M65.3574 164.88L61.775 162.331L37.5156 176.557V192.478L61.6099 178.261L65.3574 180.293V164.88Z" fill="white" stroke="#666666" stroke-width="2" stroke-linecap="round" stroke-linejoin="round"/>
<path d="M90.2292 174.026L70.4023 185.244V169.322L90.2292 158.194V174.026Z" fill="white" stroke="#666666" stroke-width="2" stroke-linecap="round" stroke-linejoin="round"/>
<path d="M71.6155 194.815L56.3203 203.673V187.751L71.6155 178.991V194.815Z" fill="white" stroke="#666666" stroke-width="2" stroke-linecap="round" stroke-linejoin="round"/>
<path d="M71.6172 194.815L88.6706 204.148V188.636L71.6172 178.991V194.815Z" fill="white" stroke="#666666" stroke-width="2" stroke-linecap="round" stroke-linejoin="round"/>
<path d="M77 122.383C77 116.002 71.8508 110.829 65.5 110.829C59.1492 110.829 54 116.002 54 122.383C54 127.725 57.6106 132.205 62.5127 133.53L65.5 137.829L68.4873 133.53C73.3894 132.205 77 127.725 77 122.383Z" fill="white" stroke="#666666" stroke-width="2" stroke-linecap="round" stroke-linejoin="round"/>
<path d="M64.2484 128.823H64.2321C63.9333 128.823 63.6563 128.681 63.4553 128.439L59.2724 123.361C58.8813 122.888 58.9139 122.154 59.3539 121.728C59.7885 121.302 60.4621 121.338 60.8532 121.817L64.2647 125.959L70.1642 119.19C70.5661 118.728 71.2398 118.705 71.6689 119.148C72.0926 119.586 72.1144 120.32 71.7069 120.787L65.0143 128.468C64.8133 128.699 64.5363 128.829 64.243 128.829L64.2484 128.823Z" fill="#666666"/>
<path d="M9.75391 9.89258H12.8477C12.8047 7.14258 10.5381 5.23047 7.08984 5.23047C3.68457 5.23047 1.19238 7.11035 1.20312 9.93555C1.20312 12.2129 2.81445 13.5234 5.43555 14.168L7.13281 14.5762C8.83008 14.9951 9.79688 15.4893 9.79688 16.5527C9.79688 17.7129 8.70117 18.5078 7.00391 18.5078C5.28516 18.5078 4.03906 17.7129 3.93164 16.1445H0.794922C0.891602 19.4854 3.28711 21.2256 7.04688 21.2148C10.8389 21.2256 13.0518 19.3994 13.0625 16.5527C13.0518 13.9639 11.0645 12.6104 8.40039 11.998L7.00391 11.6543C5.66113 11.3535 4.50098 10.8486 4.51172 9.7207C4.52246 8.68945 5.43555 7.9375 7.06836 7.9375C8.64746 7.9375 9.625 8.65723 9.75391 9.89258ZM14.4564 8.10938H19.2259V21H22.4271V8.10938H27.1966V5.44531H14.4564V8.10938ZM29.0847 21H39.5476V18.3359H32.3073V14.5547H38.989V11.8906H32.3073V8.10938H39.5261V5.44531H29.0847V21ZM41.9298 21H45.1524V15.9297H47.9454C51.5333 15.9297 53.5958 13.792 53.5958 10.6875C53.5958 7.62598 51.5655 5.44531 48.0313 5.44531H41.9298V21ZM45.1524 13.3301V8.08789H47.4298C49.3419 8.09863 50.2764 9.14062 50.2657 10.6875C50.2764 12.2559 49.3419 13.3301 47.4298 13.3301H45.1524ZM66.4383 21.2148C70.327 21.2148 72.6902 18.3359 72.6902 13.2227C72.6902 8.1416 70.3162 5.23047 66.4383 5.23047C62.5604 5.23047 60.1863 8.1416 60.1863 13.2227C60.1863 18.3145 62.5389 21.2148 66.4383 21.2148ZM63.4949 13.2227C63.4949 9.66699 64.6443 7.88379 66.4383 7.87305C68.2322 7.88379 69.3924 9.66699 69.3816 13.2227C69.3924 16.8105 68.243 18.5508 66.4383 18.5508C64.6336 18.5508 63.4734 16.8105 63.4949 13.2227ZM81.5177 5.44531H78.4669L74.6212 7.89453V10.752L78.1877 8.51758H78.2736V21H81.5177V5.44531Z" fill="#333333"/>
</svg>
