<svg width="140" height="323" viewBox="0 0 140 323" fill="none" xmlns="http://www.w3.org/2000/svg">
<path d="M86.0826 140.213L20.5315 164.868C19.0298 165.433 18.2681 167.114 18.8302 168.623L32.5473 205.452C33.1093 206.961 34.7823 207.726 36.2839 207.162L101.835 182.507C103.337 181.942 104.098 180.261 103.536 178.752L89.8192 141.923C89.2572 140.413 87.5842 139.648 86.0826 140.213Z" fill="white" stroke="#666666" stroke-width="2" stroke-linecap="round" stroke-linejoin="round"/>
<path d="M34.2129 174.83L28.8594 176.844L30.2313 180.527L35.5849 178.514L34.2129 174.83Z" fill="white" stroke="#666666" stroke-width="2" stroke-linecap="round" stroke-linejoin="round"/>
<path d="M39.5723 172.815L34.2188 174.828L35.5907 178.512L40.9443 176.498L39.5723 172.815Z" fill="white" stroke="#666666" stroke-width="2" stroke-linecap="round" stroke-linejoin="round"/>
<path d="M30.2344 180.524L32.8736 187.607L43.5852 183.577L40.9459 176.5L35.5902 178.512L30.2344 180.524Z" fill="white" stroke="#666666" stroke-width="2" stroke-linecap="round" stroke-linejoin="round"/>
<path d="M90.8652 176.732C91.8308 179.326 90.524 182.224 87.9363 183.194C85.3549 184.164 82.4711 182.851 81.5055 180.251C80.5399 177.657 81.8466 174.759 84.4344 173.788C87.0157 172.818 89.8996 174.131 90.8652 176.732Z" stroke="#666666" stroke-width="2" stroke-linecap="round" stroke-linejoin="round"/>
<path d="M96.9902 174.427C97.9558 177.021 96.649 179.919 94.0613 180.889C91.4799 181.86 88.5961 180.546 87.6305 177.946C86.6649 175.352 87.9716 172.454 90.5594 171.484C93.1407 170.513 96.0246 171.826 96.9902 174.427Z" stroke="#666666" stroke-width="2" stroke-linecap="round" stroke-linejoin="round"/>
<path d="M70.2578 136.071L121.035 116.969" stroke="#666666" stroke-width="3" stroke-linecap="round" stroke-linejoin="round"/>
<path d="M95.5312 136.34L114.772 129.102" stroke="#666666" stroke-width="3" stroke-linecap="round" stroke-linejoin="round"/>
<path d="M99.75 145.106L112 140.5" stroke="#666666" stroke-width="3" stroke-linecap="round" stroke-linejoin="round"/>
<path d="M9.75391 9.89258C9.68945 9.27669 9.4209 8.79688 8.94824 8.45312C8.48275 8.10938 7.85612 7.9375 7.06836 7.9375C6.53125 7.9375 6.06934 8.01628 5.68262 8.17383C5.30306 8.32422 5.01302 8.53548 4.8125 8.80762C4.61198 9.07975 4.51172 9.3877 4.51172 9.73145C4.51172 10.2471 4.73372 10.6553 5.17773 10.9561C5.62891 11.2497 6.23763 11.4824 7.00391 11.6543L8.40039 11.998C9.83984 12.3275 10.9749 12.8646 11.8057 13.6094C12.6364 14.347 13.0553 15.3281 13.0625 16.5527C13.0625 17.498 12.8226 18.3216 12.3428 19.0234C11.863 19.7253 11.1719 20.266 10.2695 20.6455C9.36719 21.0251 8.29297 21.2148 7.04688 21.2148C5.78646 21.222 4.69434 21.0322 3.77051 20.6455C2.84668 20.2588 2.12695 19.6859 1.61133 18.9268C1.0957 18.1676 0.823568 17.2402 0.794922 16.1445H3.93164C3.98177 16.9108 4.28255 17.498 4.83398 17.9062C5.39258 18.3073 6.11589 18.5078 7.00391 18.5078C7.5625 18.5078 8.05306 18.4255 8.47559 18.2607C8.89811 18.096 9.22396 17.8669 9.45312 17.5732C9.68229 17.2796 9.79688 16.9395 9.79688 16.5527C9.79688 16.0514 9.57845 15.654 9.1416 15.3604C8.71191 15.0596 8.04232 14.7982 7.13281 14.5762L5.43555 14.168C2.61393 13.4733 1.20312 12.0625 1.20312 9.93555C1.20312 9.01172 1.45378 8.19531 1.95508 7.48633C2.46354 6.77018 3.16178 6.21517 4.0498 5.82129C4.94499 5.42741 5.95833 5.23047 7.08984 5.23047C8.22135 5.23047 9.22038 5.42741 10.0869 5.82129C10.9535 6.21517 11.6266 6.7666 12.1064 7.47559C12.5863 8.17741 12.8333 8.98307 12.8477 9.89258H9.75391ZM14.4564 5.44531H27.1966V8.10938H22.4271V21H19.2259V8.10938H14.4564V5.44531ZM29.0847 5.44531H39.5261V8.10938H32.3073V11.8906H38.989V14.5547H32.3073V18.3359H39.5476V21H29.0847V5.44531ZM41.9298 5.44531H48.0313C49.1843 5.44531 50.1798 5.66732 51.0177 6.11133C51.8555 6.55534 52.4929 7.1748 52.9298 7.96973C53.3738 8.75749 53.5958 9.66341 53.5958 10.6875C53.5958 11.7259 53.3702 12.6426 52.919 13.4375C52.475 14.2253 51.8269 14.8376 50.9747 15.2744C50.1296 15.7113 49.1199 15.9297 47.9454 15.9297H45.1524V21H41.9298V5.44531ZM47.4298 13.3301C48.3608 13.3301 49.0662 13.0938 49.546 12.6211C50.033 12.1413 50.2729 11.4967 50.2657 10.6875C50.2729 9.89258 50.033 9.26237 49.546 8.79688C49.0662 8.33138 48.3608 8.09505 47.4298 8.08789H45.1524V13.3301H47.4298ZM66.4383 21.2148C65.1421 21.2148 64.0249 20.9033 63.0867 20.2803C62.1486 19.6501 61.4288 18.737 60.9275 17.541C60.4334 16.3451 60.1863 14.9056 60.1863 13.2227C60.1863 11.5469 60.437 10.111 60.9383 8.91504C61.4396 7.71191 62.1593 6.79883 63.0975 6.17578C64.0356 5.54557 65.1492 5.23047 66.4383 5.23047C67.7273 5.23047 68.841 5.54557 69.7791 6.17578C70.7173 6.79883 71.437 7.71191 71.9383 8.91504C72.4396 10.111 72.6902 11.5469 72.6902 13.2227C72.6902 14.9128 72.4396 16.3558 71.9383 17.5518C71.437 18.7477 70.7173 19.6572 69.7791 20.2803C68.8481 20.9033 67.7345 21.2148 66.4383 21.2148ZM63.4949 13.3193C63.4949 15.0381 63.7563 16.3415 64.2791 17.2295C64.8019 18.1104 65.5216 18.5508 66.4383 18.5508C67.3621 18.5508 68.0854 18.1032 68.6082 17.208C69.131 16.3057 69.3888 14.9772 69.3816 13.2227C69.3816 12.0625 69.2635 11.085 69.0271 10.29C68.7908 9.48796 68.4507 8.88639 68.0066 8.48535C67.5626 8.08431 67.0398 7.88021 66.4383 7.87305C65.5145 7.88021 64.7911 8.3457 64.2684 9.26953C63.7527 10.1934 63.4949 11.5433 63.4949 13.3193ZM80.5294 21.2148C79.4624 21.2148 78.4992 21.0179 77.6398 20.624C76.7876 20.2301 76.1144 19.6859 75.6203 18.9912C75.1261 18.2894 74.8719 17.498 74.8576 16.6172H77.9943C78.0158 17.0111 78.1411 17.3656 78.3703 17.6807C78.6066 17.9886 78.911 18.2285 79.2834 18.4004C79.6629 18.5723 80.0783 18.6582 80.5294 18.6582C81.0594 18.6582 81.5321 18.5436 81.9474 18.3145C82.3699 18.0781 82.6958 17.7523 82.925 17.3369C83.1613 16.9215 83.2794 16.4453 83.2794 15.9082C83.2794 15.3639 83.1613 14.8805 82.925 14.458C82.6886 14.0283 82.3556 13.6953 81.9259 13.459C81.5034 13.2155 81.0236 13.0938 80.4865 13.0938C79.3192 13.0938 78.5028 13.5306 78.0373 14.4043H75.1154L75.9533 5.44531H85.5353V8.08789H78.6173L78.1877 12.0195H78.3166C78.603 11.6257 79.0291 11.3105 79.5949 11.0742C80.1606 10.8307 80.7801 10.709 81.4533 10.709C82.3914 10.709 83.2365 10.9274 83.9884 11.3643C84.7475 11.8011 85.3419 12.4098 85.7716 13.1904C86.2013 13.971 86.4162 14.8483 86.4162 15.8223C86.4162 16.8607 86.1691 17.7917 85.675 18.6152C85.1808 19.4316 84.4862 20.069 83.591 20.5273C82.703 20.9857 81.6824 21.2148 80.5294 21.2148Z" fill="#333333"/>
</svg>
