<svg width="140" height="323" viewBox="0 0 140 323" fill="none" xmlns="http://www.w3.org/2000/svg">
<path d="M9.75391 9.89258H12.8477C12.8047 7.14258 10.5381 5.23047 7.08984 5.23047C3.68457 5.23047 1.19238 7.11035 1.20312 9.93555C1.20312 12.2129 2.81445 13.5234 5.43555 14.168L7.13281 14.5762C8.83008 14.9951 9.79688 15.4893 9.79688 16.5527C9.79688 17.7129 8.70117 18.5078 7.00391 18.5078C5.28516 18.5078 4.03906 17.7129 3.93164 16.1445H0.794922C0.891602 19.4854 3.28711 21.2256 7.04688 21.2148C10.8389 21.2256 13.0518 19.3994 13.0625 16.5527C13.0518 13.9639 11.0645 12.6104 8.40039 11.998L7.00391 11.6543C5.66113 11.3535 4.50098 10.8486 4.51172 9.7207C4.52246 8.68945 5.43555 7.9375 7.06836 7.9375C8.64746 7.9375 9.625 8.65723 9.75391 9.89258ZM14.4564 8.10938H19.2259V21H22.4271V8.10938H27.1966V5.44531H14.4564V8.10938ZM29.0847 21H39.5476V18.3359H32.3073V14.5547H38.989V11.8906H32.3073V8.10938H39.5261V5.44531H29.0847V21ZM41.9298 21H45.1524V15.9297H47.9454C51.5333 15.9297 53.5958 13.792 53.5958 10.6875C53.5958 7.62598 51.5655 5.44531 48.0313 5.44531H41.9298V21ZM45.1524 13.3301V8.08789H47.4298C49.3419 8.09863 50.2764 9.14062 50.2657 10.6875C50.2764 12.2559 49.3419 13.3301 47.4298 13.3301H45.1524ZM66.4383 21.2148C70.327 21.2148 72.6902 18.3359 72.6902 13.2227C72.6902 8.1416 70.3162 5.23047 66.4383 5.23047C62.5604 5.23047 60.1863 8.1416 60.1863 13.2227C60.1863 18.3145 62.5389 21.2148 66.4383 21.2148ZM63.4949 13.2227C63.4949 9.66699 64.6443 7.88379 66.4383 7.87305C68.2322 7.88379 69.3924 9.66699 69.3816 13.2227C69.3924 16.8105 68.243 18.5508 66.4383 18.5508C64.6336 18.5508 63.4734 16.8105 63.4949 13.2227ZM74.5568 18.25H82.1193V21H85.1916V18.25H87.1681V15.6504H85.1916V5.44531H81.131L74.5568 15.6934V18.25ZM77.8224 15.6504V15.5215L82.0119 8.99023H82.1623V15.6504H77.8224Z" fill="#333333"/>
<path d="M120.93 155.258L105.19 126.838C104.8 126.128 103.91 125.858 103.19 126.228L94.43 130.728C91.38 131.608 88.79 131.168 84.14 130.378C81.89 129.998 79.1 129.528 75.64 129.108C64.45 127.768 55.22 134.828 50.78 138.228L50.7 138.288C48.9 139.658 43.09 144.468 43.62 148.638C43.76 149.698 44.36 151.148 46.46 152.028C51.92 154.318 56.57 152.518 62.31 148.868C64.3 147.598 66.5 147.058 68.43 146.858C68.43 146.858 95.96 169.378 96.11 169.868C96.31 170.508 107.36 167.898 112.81 161.918C112.89 161.888 112.97 161.858 113.05 161.818L120.41 157.248C121.09 156.828 121.32 155.948 120.93 155.248V155.258Z" fill="white" stroke="#666666" stroke-width="2" stroke-linecap="round" stroke-linejoin="round"/>
<path d="M102.276 166.479C101.846 164.869 100.816 163.529 99.4263 162.719L69.9363 144.099C70.6963 142.779 71.5463 140.779 71.0563 139.079C70.8463 138.339 70.2963 137.359 68.8963 136.819C67.2363 136.179 64.8463 135.859 61.7963 135.859C60.3263 135.859 59.1863 135.939 58.9063 135.959C50.5863 135.949 42.9963 133.659 41.8263 133.289L34.8763 129.069C34.5263 128.859 34.0963 128.799 33.7063 128.899C33.3063 129.009 32.9763 129.279 32.7763 129.639L19.0763 155.279C18.6963 155.989 18.9463 156.859 19.6263 157.269L25.6563 160.889C31.8963 171.059 42.3063 177.079 42.7463 177.339L77.1763 197.099C78.1263 197.649 79.1963 197.939 80.2863 197.939C82.5063 197.939 84.5763 196.739 85.6963 194.819C86.3963 193.599 86.6563 192.249 86.4963 190.959C88.9463 191.249 91.3963 190.019 92.6263 187.879C93.3563 186.609 93.5863 185.169 93.3763 183.799C95.7163 183.919 97.9563 182.709 99.1263 180.689C100.406 178.459 100.166 175.769 98.7163 173.829C99.9363 173.309 100.986 172.399 101.666 171.219C102.496 169.779 102.716 168.099 102.286 166.489L102.276 166.479Z" fill="white" stroke="#666666" stroke-width="2" stroke-linecap="round" stroke-linejoin="round"/>
<path d="M43.3708 166.112C45.3708 167.792 45.6408 170.782 43.9508 172.782L39.2408 178.402C37.5608 180.402 34.5708 180.662 32.5708 178.982C30.5708 177.302 30.3108 174.312 31.9908 172.312L36.7008 166.692C38.3808 164.692 41.3708 164.422 43.3708 166.112Z" fill="white" stroke="#666666" stroke-width="2" stroke-linecap="round" stroke-linejoin="round"/>
<path d="M54.2214 167.917C56.2214 169.597 56.4914 172.587 54.8114 174.587L44.8814 186.427C43.2014 188.427 40.2114 188.697 38.2114 187.007C36.2114 185.327 35.9514 182.337 37.6314 180.337L47.5614 168.497C49.2414 166.497 52.2314 166.227 54.2314 167.917H54.2214Z" fill="white" stroke="#666666" stroke-width="2" stroke-linecap="round" stroke-linejoin="round"/>
<path d="M60.8167 174.79C62.8167 176.47 63.0867 179.46 61.3967 181.46L53.4167 190.96C51.7368 192.97 48.7467 193.23 46.7467 191.54C44.7467 189.86 44.4768 186.87 46.1668 184.87L54.1467 175.36C55.8267 173.36 58.8167 173.1 60.8167 174.78V174.79Z" fill="white" stroke="#666666" stroke-width="2" stroke-linecap="round" stroke-linejoin="round"/>
<path d="M66.4469 182.821C68.4469 184.501 68.7169 187.491 67.0269 189.491L62.3169 195.111C60.6369 197.111 57.6469 197.381 55.6469 195.701C53.6469 194.021 53.3769 191.031 55.0569 189.031L59.7669 183.411C61.4469 181.411 64.4369 181.141 66.4369 182.831L66.4469 182.821Z" fill="white" stroke="#666666" stroke-width="2" stroke-linecap="round" stroke-linejoin="round"/>
<path d="M74.3678 129.033C63.7578 128.353 55.0478 134.983 50.7878 138.243L50.7078 138.303C48.9078 139.673 43.0978 144.483 43.6278 148.653C43.7678 149.713 44.3678 151.163 46.4678 152.043C51.9278 154.333 56.5778 152.533 62.3178 148.883C64.3078 147.613 68.4878 143.953 76.8478 145.663" fill="white"/>
<path d="M74.3678 129.033C63.7578 128.353 55.0478 134.983 50.7878 138.243L50.7078 138.303C48.9078 139.673 43.0978 144.483 43.6278 148.653C43.7678 149.713 44.3678 151.163 46.4678 152.043C51.9278 154.333 56.5778 152.533 62.3178 148.883C64.3078 147.613 68.4878 143.953 76.8478 145.663" stroke="#666666" stroke-width="2" stroke-linecap="round" stroke-linejoin="round"/>
<path d="M79.9922 162.547L98.7122 173.827" stroke="#666666" stroke-width="2" stroke-linecap="round" stroke-linejoin="round"/>
<path d="M74.5078 171.914L93.3678 183.804" stroke="#666666" stroke-width="2" stroke-linecap="round" stroke-linejoin="round"/>
<path d="M70.3672 180.367L86.4872 190.947" stroke="#666666" stroke-width="2" stroke-linecap="round" stroke-linejoin="round"/>
</svg>
