<svg width="140" height="232" viewBox="0 0 140 232" fill="none" xmlns="http://www.w3.org/2000/svg">
<path d="M74.1069 127.23L63.5781 137.759L82.0053 156.186L92.5341 145.657L74.1069 127.23Z" fill="white" stroke="#666666" stroke-width="2" stroke-linecap="round" stroke-linejoin="round"/>
<path d="M51.4631 135.581H53.6331C69.9231 135.581 83.1431 148.801 83.1431 165.091V196.771H51.4631C35.1731 196.771 21.9531 183.551 21.9531 167.261V165.091C21.9531 148.811 35.1731 135.581 51.4631 135.581Z" fill="white" stroke="#666666" stroke-width="2" stroke-linecap="round" stroke-linejoin="round"/>
<path d="M65.0328 178.664C71.9295 171.768 71.9295 160.586 65.0328 153.689C58.1362 146.793 46.9545 146.793 40.0578 153.689C33.1612 160.586 33.1612 171.768 40.0578 178.664C46.9545 185.561 58.1362 185.561 65.0328 178.664Z" fill="white" stroke="#666666" stroke-width="2" stroke-linecap="round" stroke-linejoin="round"/>
<path d="M64.8547 166.182C64.8547 159.392 59.3447 153.882 52.5547 153.882Z" fill="white"/>
<path d="M64.8547 166.182C64.8547 159.392 59.3447 153.882 52.5547 153.882" stroke="#666666" stroke-width="2" stroke-linecap="round" stroke-linejoin="round"/>
<path d="M83.1406 192.762H118.051V181.362" stroke="#666666" stroke-width="2" stroke-linecap="round" stroke-linejoin="round"/>
<path d="M9.75391 9.89258C9.68945 9.27669 9.4209 8.79688 8.94824 8.45312C8.48275 8.10938 7.85612 7.9375 7.06836 7.9375C6.53125 7.9375 6.06934 8.01628 5.68262 8.17383C5.30306 8.32422 5.01302 8.53548 4.8125 8.80762C4.61198 9.07975 4.51172 9.3877 4.51172 9.73145C4.51172 10.2471 4.73372 10.6553 5.17773 10.9561C5.62891 11.2497 6.23763 11.4824 7.00391 11.6543L8.40039 11.998C9.83984 12.3275 10.9749 12.8646 11.8057 13.6094C12.6364 14.347 13.0553 15.3281 13.0625 16.5527C13.0625 17.498 12.8226 18.3216 12.3428 19.0234C11.863 19.7253 11.1719 20.266 10.2695 20.6455C9.36719 21.0251 8.29297 21.2148 7.04688 21.2148C5.78646 21.222 4.69434 21.0322 3.77051 20.6455C2.84668 20.2588 2.12695 19.6859 1.61133 18.9268C1.0957 18.1676 0.823568 17.2402 0.794922 16.1445H3.93164C3.98177 16.9108 4.28255 17.498 4.83398 17.9062C5.39258 18.3073 6.11589 18.5078 7.00391 18.5078C7.5625 18.5078 8.05306 18.4255 8.47559 18.2607C8.89811 18.096 9.22396 17.8669 9.45312 17.5732C9.68229 17.2796 9.79688 16.9395 9.79688 16.5527C9.79688 16.0514 9.57845 15.654 9.1416 15.3604C8.71191 15.0596 8.04232 14.7982 7.13281 14.5762L5.43555 14.168C2.61393 13.4733 1.20312 12.0625 1.20312 9.93555C1.20312 9.01172 1.45378 8.19531 1.95508 7.48633C2.46354 6.77018 3.16178 6.21517 4.0498 5.82129C4.94499 5.42741 5.95833 5.23047 7.08984 5.23047C8.22135 5.23047 9.22038 5.42741 10.0869 5.82129C10.9535 6.21517 11.6266 6.7666 12.1064 7.47559C12.5863 8.17741 12.8333 8.98307 12.8477 9.89258H9.75391ZM14.4564 5.44531H27.1966V8.10938H22.4271V21H19.2259V8.10938H14.4564V5.44531ZM29.0847 5.44531H39.5261V8.10938H32.3073V11.8906H38.989V14.5547H32.3073V18.3359H39.5476V21H29.0847V5.44531ZM41.9298 5.44531H48.0313C49.1843 5.44531 50.1798 5.66732 51.0177 6.11133C51.8555 6.55534 52.4929 7.1748 52.9298 7.96973C53.3738 8.75749 53.5958 9.66341 53.5958 10.6875C53.5958 11.7259 53.3702 12.6426 52.919 13.4375C52.475 14.2253 51.8269 14.8376 50.9747 15.2744C50.1296 15.7113 49.1199 15.9297 47.9454 15.9297H45.1524V21H41.9298V5.44531ZM47.4298 13.3301C48.3608 13.3301 49.0662 13.0938 49.546 12.6211C50.033 12.1413 50.2729 11.4967 50.2657 10.6875C50.2729 9.89258 50.033 9.26237 49.546 8.79688C49.0662 8.33138 48.3608 8.09505 47.4298 8.08789H45.1524V13.3301H47.4298ZM66.4383 21.2148C65.1421 21.2148 64.0249 20.9033 63.0867 20.2803C62.1486 19.6501 61.4288 18.737 60.9275 17.541C60.4334 16.3451 60.1863 14.9056 60.1863 13.2227C60.1863 11.5469 60.437 10.111 60.9383 8.91504C61.4396 7.71191 62.1593 6.79883 63.0975 6.17578C64.0356 5.54557 65.1492 5.23047 66.4383 5.23047C67.7273 5.23047 68.841 5.54557 69.7791 6.17578C70.7173 6.79883 71.437 7.71191 71.9383 8.91504C72.4396 10.111 72.6902 11.5469 72.6902 13.2227C72.6902 14.9128 72.4396 16.3558 71.9383 17.5518C71.437 18.7477 70.7173 19.6572 69.7791 20.2803C68.8481 20.9033 67.7345 21.2148 66.4383 21.2148ZM63.4949 13.3193C63.4949 15.0381 63.7563 16.3415 64.2791 17.2295C64.8019 18.1104 65.5216 18.5508 66.4383 18.5508C67.3621 18.5508 68.0854 18.1032 68.6082 17.208C69.131 16.3057 69.3888 14.9772 69.3816 13.2227C69.3816 12.0625 69.2635 11.085 69.0271 10.29C68.7908 9.48796 68.4507 8.88639 68.0066 8.48535C67.5626 8.08431 67.0398 7.88021 66.4383 7.87305C65.5145 7.88021 64.7911 8.3457 64.2684 9.26953C63.7527 10.1934 63.4949 11.5433 63.4949 13.3193ZM80.5724 21.2148C79.4481 21.2148 78.4383 21.0215 77.5431 20.6348C76.6551 20.248 75.9533 19.7074 75.4377 19.0127C74.9292 18.3109 74.6642 17.5124 74.6427 16.6172H77.9084C77.9227 16.9967 78.048 17.3333 78.2843 17.627C78.5207 17.9134 78.8393 18.139 79.2404 18.3037C79.6414 18.4684 80.0926 18.5508 80.5939 18.5508C81.1024 18.5508 81.5571 18.4613 81.9582 18.2822C82.3664 18.096 82.6815 17.8454 82.9035 17.5303C83.1255 17.208 83.2365 16.8392 83.2365 16.4238C83.2365 16.0013 83.1183 15.6289 82.882 15.3066C82.6457 14.9772 82.3055 14.7194 81.8615 14.5332C81.4175 14.347 80.8947 14.2539 80.2931 14.2539H78.8537V11.8691H80.2931C80.8016 11.8691 81.2528 11.7832 81.6466 11.6113C82.0405 11.4395 82.3449 11.196 82.5597 10.8809C82.7817 10.5658 82.8927 10.2077 82.8927 9.80664C82.8927 9.41276 82.7996 9.06543 82.6134 8.76465C82.4272 8.46387 82.1623 8.23112 81.8185 8.06641C81.4819 7.89453 81.088 7.80859 80.6369 7.80859C80.1785 7.80859 79.756 7.89095 79.3693 8.05566C78.9826 8.21322 78.6711 8.4388 78.4347 8.73242C78.1984 9.02604 78.0731 9.36979 78.0587 9.76367H74.965C74.9793 8.88997 75.2336 8.10938 75.7277 7.42188C76.229 6.72721 76.9058 6.1901 77.758 5.81055C78.6102 5.42383 79.5627 5.23047 80.6154 5.23047C81.6753 5.23047 82.6134 5.42383 83.4298 5.81055C84.2534 6.19727 84.8872 6.72363 85.3312 7.38965C85.7824 8.05566 86.008 8.79688 86.008 9.61328C86.008 10.179 85.8862 10.6947 85.6427 11.1602C85.3992 11.6185 85.0519 11.998 84.6007 12.2988C84.1567 12.5924 83.6447 12.793 83.0646 12.9004V13.0293C84.1961 13.1654 85.0698 13.5557 85.6857 14.2002C86.3016 14.8447 86.6024 15.6576 86.588 16.6387C86.5952 17.5124 86.341 18.3001 85.8253 19.002C85.3169 19.6966 84.6043 20.2409 83.6877 20.6348C82.771 21.0215 81.7326 21.2148 80.5724 21.2148Z" fill="#333333"/>
</svg>
